<svg xmlns="http://www.w3.org/2000/svg" viewBox="0 0 328 106">
<g id="kodein-logo">
	<path d="M253.204,64.317c0.353,0.156,0.655,0.367,0.922,0.629c0.27,0.258,0.476,0.564,0.627,0.912
		c0.144,0.357,0.211,0.73,0.211,1.137c-0.005,0.631-0.171,1.17-0.509,1.627l-5.541,10.926h-0.027
		c-0.204,0.367-0.488,0.67-0.861,0.896c-0.37,0.227-0.785,0.342-1.246,0.342c-0.332-0.006-0.645-0.066-0.924-0.186
		c-0.284-0.127-0.536-0.299-0.748-0.52c-0.209-0.217-0.375-0.473-0.508-0.76c-0.126-0.287-0.184-0.6-0.184-0.932
		c0-0.277,0.045-0.533,0.141-0.771v-0.029l0.086-0.25l4.79-11.586h0.033c0.222-0.504,0.569-0.902,1.042-1.215
		c0.469-0.311,0.997-0.463,1.597-0.463C252.486,64.075,252.854,64.157,253.204,64.317z M250.049,49.872
		c0.806,0.78,1.734,1.168,2.787,1.173c1.085,0.011,2.009-0.362,2.774-1.118c0.777-0.77,1.165-1.696,1.178-2.784
		c0.003-1.052-0.377-1.989-1.15-2.804c-0.79-0.756-1.707-1.144-2.757-1.148c-1.055-0.006-1.981,0.367-2.779,1.117
		c-0.775,0.811-1.165,1.728-1.171,2.765C248.921,48.174,249.294,49.111,250.049,49.872z"/>
	<path d="M291.333,46.997l-1.286-0.635c0-0.005-0.023-0.01-0.023-0.01l0,0l-16.701-8.277v6.243l14.506,6.993l-14.506,6.763v6.253
		l19.086-9.179c2.228-1.067,2.87-1.702,3.041-1.908c0.005-0.005,0.01-0.015,0.025-0.024c0,0,0.002-0.011,0.002-0.016
		c0.363-0.523,0.574-1.158,0.574-1.854c0-0.86-0.33-1.636-0.871-2.215C294.902,48.819,292.77,47.716,291.333,46.997z"/>
	<path d="M32.844,46.997l1.276-0.635c0.007-0.005,0.027-0.01,0.027-0.01l0,0l16.696-8.277v6.243l-14.498,6.993l14.498,6.763v6.253
		l-19.08-9.179c-2.231-1.067-2.875-1.702-3.047-1.908c-0.005-0.005-0.008-0.015-0.015-0.024c-0.005-0.006-0.008-0.011-0.013-0.016
		c-0.357-0.523-0.569-1.158-0.569-1.854c0-0.86,0.33-1.636,0.863-2.215C29.258,48.819,31.396,47.716,32.844,46.997z"/>
	<g>
		<g>
			<path d="M201.156,33.356c0.891,0,1.659,0.322,2.299,0.972c0.639,0.645,0.961,1.435,0.961,2.352c0,0.911-0.314,1.687-0.954,2.331
				c-0.632,0.64-1.392,0.962-2.271,0.962c-0.909,0-1.677-0.327-2.321-0.987c-0.632-0.648-0.954-1.444-0.954-2.376
				c0-0.901,0.317-1.667,0.951-2.302C199.494,33.673,200.262,33.356,201.156,33.356z"/>
			<rect x="198.603" y="43.713" width="5.101" height="20.332"/>
			<path d="M208.34,43.713h5.101v2.084c1.156-0.977,2.208-1.65,3.145-2.033s1.901-0.574,2.883-0.574c2.014,0,3.724,0.71,5.131,2.115
				c1.181,1.192,1.775,2.96,1.775,5.307v13.434h-5.046v-8.902c0-2.427-0.108-4.038-0.332-4.834
				c-0.212-0.795-0.592-1.404-1.136-1.817c-0.536-0.423-1.2-0.63-2.004-0.63c-1.029,0-1.913,0.348-2.65,1.037
				c-0.74,0.69-1.259,1.646-1.544,2.865c-0.15,0.635-0.222,2.01-0.222,4.124v8.157h-5.101V43.713z"/>
		</g>
		<g>
			<path d="M170.827,55.354h-16.395c0.236,1.451,0.871,2.599,1.898,3.449c1.026,0.852,2.344,1.279,3.935,1.279
				c1.911,0,3.545-0.664,4.917-1.999l4.298,2.019c-1.073,1.521-2.354,2.648-3.853,3.373c-1.498,0.73-3.271,1.094-5.319,1.094
				c-3.195,0-5.793-1.008-7.8-3.016c-2.004-2.016-3.008-4.532-3.008-7.562c0-3.103,1.002-5.676,3.001-7.725
				c1.998-2.055,4.511-3.076,7.52-3.076c3.205,0,5.806,1.021,7.817,3.076c2.004,2.049,3.003,4.754,3.003,8.117L170.827,55.354z
				 M165.723,51.342c-0.335-1.139-1.004-2.061-1.996-2.77c-0.989-0.711-2.143-1.062-3.452-1.062c-1.425,0-2.671,0.397-3.743,1.198
				c-0.672,0.493-1.297,1.374-1.868,2.634H165.723z"/>
			<g>
				<path d="M97.545,43.713h-6.41l-7.51,8.383V36.025c0.008-0.04,0.013-0.075,0.013-0.11c0-1.416-1.146-2.559-2.556-2.559
					c-1.387,0-2.522,1.118-2.548,2.508h-0.01v28.182h5.101V54.68l8.636,9.365h6.336l-9.811-10.589L97.545,43.713z"/>
				<path d="M115.654,44.629c-1.694-0.956-3.499-1.439-5.412-1.439c-2.651,0-5.006,0.922-7.045,2.77
					c-2.334,2.114-3.494,4.763-3.494,7.939c0,2.967,1.027,5.488,3.094,7.559c2.055,2.074,4.547,3.111,7.463,3.111
					c1.98,0,3.786-0.473,5.433-1.41c1.653-0.941,2.945-2.24,3.904-3.912c0.949-1.672,1.423-3.464,1.423-5.387
					c0-1.904-0.469-3.676-1.415-5.328C118.655,46.891,117.338,45.586,115.654,44.629z M114.292,58.159
					c-1.065,1.107-2.39,1.666-3.988,1.666c-1.596,0-2.918-0.553-3.958-1.646c-1.042-1.098-1.563-2.532-1.563-4.3
					c0-1.723,0.529-3.132,1.579-4.234c1.062-1.098,2.376-1.652,3.96-1.652c1.626,0,2.955,0.545,3.995,1.637
					c1.042,1.088,1.566,2.503,1.566,4.25S115.349,57.051,114.292,58.159z"/>
				<path d="M145.298,35.838c0-1.41-1.143-2.553-2.553-2.553c-1.407,0-2.553,1.143-2.553,2.553c0,0.016,0,0.02,0,0.025l0,0v10.096
					c-0.906-0.927-1.896-1.617-2.966-2.074c-1.07-0.464-2.21-0.695-3.439-0.695c-2.644,0-4.898,1.007-6.749,3.011
					c-1.855,2.004-2.787,4.577-2.787,7.719c0,3.026,0.959,5.56,2.883,7.593c1.916,2.035,4.184,3.057,6.81,3.057
					c1.174,0,2.253-0.211,3.258-0.625c1-0.418,2.002-1.098,2.991-2.043v2.145h5.105V35.864l0,0
					C145.298,35.858,145.298,35.854,145.298,35.838z M138.841,58.225c-1.061,1.111-2.39,1.672-3.988,1.672
					c-1.559,0-2.857-0.57-3.923-1.697c-1.064-1.139-1.591-2.583-1.591-4.34c0-1.742,0.521-3.173,1.566-4.291
					c1.042-1.112,2.352-1.672,3.93-1.672c1.611,0,2.945,0.549,4.006,1.646c1.055,1.098,1.578,2.528,1.578,4.295
					C140.419,55.647,139.896,57.107,138.841,58.225z"/>
			</g>
		</g>
		<rect x="180.635" y="51.07" width="8.821" height="5.101"/>
	</g>
</g>
</svg>
